<?xml version="1.0" standalone="no"?>
<!DOCTYPE svg PUBLIC "-//W3C//DTD SVG 20010904//EN"
 "http://www.w3.org/TR/2001/REC-SVG-20010904/DTD/svg10.dtd">
<svg version="1.0" xmlns="http://www.w3.org/2000/svg"
 width="64.000000pt" height="64.000000pt" viewBox="0 0 64.000000 64.000000"
 preserveAspectRatio="xMidYMid meet">

<g transform="translate(0.000000,64.000000) scale(0.100000,-0.100000)"
fill="#000000" stroke="none">
<path d="M257 609 c-215 -33 -305 -303 -158 -472 79 -90 224 -117 335 -63 102
50 158 140 158 256 0 182 -150 307 -335 279z m163 -30 c171 -77 215 -302 87
-438 -103 -108 -291 -108 -394 0 -101 107 -97 286 8 386 77 73 205 95 299 52z"/>
<path d="M270 551 c-116 -24 -204 -145 -183 -253 8 -42 37 -100 59 -119 10 -8
4 6 -12 30 -41 62 -46 157 -12 221 36 66 93 103 169 108 39 3 56 8 48 13 -16
10 -19 10 -69 0z"/>
<path d="M380 536 c0 -2 7 -7 16 -10 8 -3 12 -2 9 4 -6 10 -25 14 -25 6z"/>
<path d="M473 467 c59 -78 64 -181 12 -259 -16 -25 -21 -37 -11 -29 10 8 27
33 38 55 41 81 20 194 -47 256 -23 20 -21 16 8 -23z"/>
<path d="M280 450 c0 -5 16 -28 36 -50 l36 -39 -84 -3 c-81 -3 -83 -4 -83 -28
0 -24 2 -25 83 -28 l84 -3 -36 -39 c-44 -48 -45 -60 -7 -60 24 0 39 12 80 61
28 33 51 65 51 69 0 5 -23 36 -50 69 -41 50 -56 61 -80 61 -17 0 -30 -4 -30
-10z m105 -65 l47 -55 -47 -55 c-27 -33 -55 -55 -67 -55 -17 0 -15 5 16 42 20
23 36 45 36 50 0 4 -38 8 -85 8 -50 0 -85 4 -85 10 0 6 35 10 85 10 47 0 85 4
85 8 0 5 -16 27 -36 50 -31 37 -33 42 -16 42 12 0 40 -22 67 -55z"/>
<path d="M205 149 c-4 -6 -5 -12 -2 -15 2 -3 7 2 10 11 7 17 1 20 -8 4z"/>
<path d="M406 147 c3 -10 9 -15 12 -12 3 3 0 11 -7 18 -10 9 -11 8 -5 -6z"/>
<path d="M251 124 c0 -11 3 -14 6 -6 3 7 2 16 -1 19 -3 4 -6 -2 -5 -13z"/>
<path d="M361 124 c0 -11 3 -14 6 -6 3 7 2 16 -1 19 -3 4 -6 -2 -5 -13z"/>
<path d="M300 120 c0 -5 5 -10 10 -10 6 0 10 5 10 10 0 6 -4 10 -10 10 -5 0
-10 -4 -10 -10z"/>
</g>
</svg>
