<?xml version="1.0"?>
<svg xmlns="http://www.w3.org/2000/svg" id="Layer_1" data-name="Layer 1" viewBox="0 0 64 64"><title>Dusk Part 2</title><circle cx="31" cy="31" r="28" style="fill:#c5e4fa;"/><path d="M12.71,52.29a28,28,0,0,0,9.18,5.82L56,24V17.57a28.1,28.1,0,0,0-3.71-4.86Z" style="fill:#e3f2ff;"/><path d="M10.76,50.24,50,11H44L8.22,46.78A28.08,28.08,0,0,0,10.76,50.24Z" style="fill:#e3f2ff;"/><path d="M7.79,43.21,41,10,38,8,6.36,39.64A27.81,27.81,0,0,0,7.79,43.21Z" style="fill:#e3f2ff;"/><path d="M31,3A28,28,0,1,0,59,31,28,28,0,0,0,31,3Zm0,50A22,22,0,1,1,46.17,15.07l.68.67q.39.4.75.82A22,22,0,0,1,31,53Z" style="fill:#f9e3ae;"/><path d="M31,53A22,22,0,0,1,9,31H7.34a4,4,0,0,0-3.95,4.71,28,28,0,0,0,55.21,0A4,4,0,0,0,54.66,31H53A22,22,0,0,1,31,53Z" style="fill:#f6d397;"/><polygon points="25 41.6 25 20 43 30.8 25 41.6" style="fill:#72caaf;"/><path d="M31,2A29,29,0,1,0,60,31,29,29,0,0,0,31,2Zm0,56A27,27,0,1,1,58,31,27,27,0,0,1,31,58Z" style="fill:#8d6c9f;"/><path d="M31,50a1,1,0,0,0-1,1v2a1,1,0,0,0,2,0V51A1,1,0,0,0,31,50Z" style="fill:#8d6c9f;"/><path d="M37,50.08a1,1,0,0,0-1.93.52l.52,1.93A1,1,0,0,0,37.53,52Z" style="fill:#8d6c9f;"/><path d="M21.75,47.52a1,1,0,0,0-1.37.37l-1,1.73a1,1,0,0,0,1.73,1l1-1.73A1,1,0,0,0,21.75,47.52Z" style="fill:#8d6c9f;"/><path d="M41.62,47.89a1,1,0,0,0-1.73,1l1,1.73a1,1,0,1,0,1.73-1Z" style="fill:#8d6c9f;"/><path d="M26.21,49.37a1,1,0,0,0-1.22.71L24.47,52a1,1,0,1,0,1.93.52l.52-1.93A1,1,0,0,0,26.21,49.37Z" style="fill:#8d6c9f;"/><path d="M38.35,11.32a21.1,21.1,0,0,1,2.1.92,1,1,0,0,0,.45.11,1,1,0,0,0,.45-1.89,22.71,22.71,0,0,0-2.3-1,1,1,0,0,0-.7,1.87Z" style="fill:#8d6c9f;"/><path d="M16.15,16.15a21.07,21.07,0,0,1,18.19-5.88,1,1,0,1,0,.32-2,23,23,0,0,0-19.92,39,1,1,0,0,0,1.41-1.41A21,21,0,0,1,16.15,16.15Z" style="fill:#8d6c9f;"/><path d="M47.26,14.74a23.16,23.16,0,0,0-2.09-1.86,1,1,0,1,0-1.23,1.57,21.27,21.27,0,0,1,1.91,1.7,21,21,0,0,1,0,29.7,1,1,0,1,0,1.41,1.41A23,23,0,0,0,47.26,14.74Z" style="fill:#8d6c9f;"/><path d="M42.41,29.28,27,20a2,2,0,0,0-3,1.72V40.24A2,2,0,0,0,25,42a2,2,0,0,0,2,0l15.42-9.24a2,2,0,0,0,0-3.43ZM26,40.24V21.76L41.39,31Z" style="fill:#8d6c9f;"/></svg>
