<svg xmlns="http://www.w3.org/2000/svg"  viewBox="0 0 64 64" width="64px" height="64px"><path fill="#c5e4fa" d="M31 5A28 28 0 1 0 31 61A28 28 0 1 0 31 5Z"/><path fill="#e3f2ff" d="M12.71 54.29a28 28 0 0 0 9.18 5.82L56 26V19.57a28.1 28.1 0 0 0-3.71-4.86zM10.76 52.24L50 13H44L8.22 48.78A28.08 28.08 0 0 0 10.76 52.24zM7.79 45.21L41 12l-3-2L6.36 41.64A27.81 27.81 0 0 0 7.79 45.21z"/><path fill="#f9e3ae" d="M31,5A28,28,0,1,0,59,33,28,28,0,0,0,31,5Zm0,50A22,22,0,1,1,46.17,17.07l.68.67q.39.4.75.82A22,22,0,0,1,31,55Z"/><path fill="#f6d397" d="M31,55A22,22,0,0,1,9,33H7.34a4,4,0,0,0-3.95,4.71,28,28,0,0,0,55.21,0A4,4,0,0,0,54.66,33H53A22,22,0,0,1,31,55Z"/><path fill="#72caaf" d="M58 9L31 36 20 25 16 29 27 40 31 44 35 40 62 13 58 9z"/><path fill="#97e0bb" d="M31,39.08a2.49,2.49,0,0,1-1.77-.73L17.94,27.06l2.12-2.12L31,35.88,57.94,8.94l2.12,2.12L32.77,38.35A2.49,2.49,0,0,1,31,39.08Z"/><path fill="#8d6c9f" d="M38.35,13.32a21.2,21.2,0,0,1,2.1.92,1,1,0,1,0,.9-1.79,22.82,22.82,0,0,0-2.3-1,1,1,0,1,0-.7,1.87Z"/><path fill="#8d6c9f" d="M62.71,12.29l-4-4a1,1,0,0,0-1.41,0l-5.07,5.07A1,1,0,0,0,52,13,28.74,28.74,0,0,0,31,4,29,29,0,1,0,56.74,19.67l6-6A1,1,0,0,0,62.71,12.29ZM58,33A27,27,0,1,1,31,6a26.76,26.76,0,0,1,19.57,8.39,1,1,0,0,0,.39.24l-3,3a1,1,0,0,0-.2-.33l-.52-.53a23.35,23.35,0,0,0-2.09-1.86,1,1,0,1,0-1.23,1.57,21.35,21.35,0,0,1,1.91,1.7l.47.49a1,1,0,0,0,.38.25L31,34.59,20.71,24.29a1,1,0,0,0-1.41,0l-4,4a1,1,0,0,0,0,1.41l15,15a1,1,0,0,0,1.41,0l19-19,.19.54q.15.45.28.9c0,.13.08.26.11.39q.18.68.31,1.37l0,.23a21.24,21.24,0,0,1-1.86,13.2c-.1.21-.21.41-.31.62s-.34.62-.52.92-.34.54-.52.81-.3.47-.47.7q-.52.71-1.09,1.37l-.43.46a20.94,20.94,0,0,1-30.52.35c-.25-.26-.49-.53-.72-.8s-.48-.55-.7-.83-.33-.44-.49-.67-.51-.7-.74-1.07c-.1-.17-.2-.34-.3-.5-.25-.43-.5-.86-.72-1.3-.07-.14-.13-.28-.19-.41-.22-.47-.44-.95-.62-1.43-.06-.16-.11-.33-.17-.49-.16-.46-.32-.92-.45-1.38-.07-.25-.12-.51-.19-.76s-.18-.75-.26-1.14-.12-.76-.16-1.14-.08-.53-.1-.8c0-.48-.06-1-.07-1.44,0-.18,0-.36,0-.53,0-.52,0-1,.07-1.55,0-.15,0-.31,0-.46,0-.49.13-1,.21-1.47,0-.19.06-.39.1-.58.09-.42.2-.84.31-1.26.07-.27.14-.53.22-.8s.23-.69.36-1,.25-.67.39-1,.31-.69.48-1,.22-.45.34-.67c.22-.42.47-.82.72-1.23.09-.14.17-.29.26-.42q.53-.8,1.14-1.56l.31-.36c.32-.38.66-.76,1-1.12s.46-.46.7-.68l.31-.29q.54-.49,1.12-.94l.4-.29.8-.57.55-.36.7-.41q.62-.35,1.25-.66l.46-.23.9-.38.38-.15c.33-.12.66-.24,1-.35h0a21.15,21.15,0,0,1,2.34-.61h0c.37-.07.74-.14,1.12-.19l.24,0A21,21,0,0,1,31.48,12l.64,0,.79.05,1.08.13.36,0a1,1,0,0,0,1.15-.83h0a1,1,0,0,0-.83-1.15l-.37,0c-.4-.06-.8-.11-1.21-.14L32.25,10l-.77,0a22.79,22.79,0,0,0-3.35.18l-.44.06-1.09.18-.33.07q-1,.21-2,.52l-.43.13-.9.32-.66.26-.77.33c-.45.2-.89.42-1.32.65l-.43.24q-.53.29-1,.62l-.45.29q-.56.37-1.1.78l-.25.18q-.67.52-1.31,1.09l-.2.19c-.22.21-.45.41-.67.63l-.22.25c-.35.36-.69.75-1,1.14-.14.16-.28.31-.41.47-.43.54-.85,1.1-1.23,1.68-.11.17-.21.35-.32.53-.26.42-.52.85-.76,1.29-.13.25-.25.5-.38.75s-.26.49-.38.75-.17.41-.25.61l-.1.24q-.39,1-.69,2l0,.06a22.83,22.83,0,0,0-.83,8.72v0q.1,1,.3,2.05l.06.28q.18.89.43,1.77l.15.51c.16.51.34,1,.53,1.52.08.21.17.43.26.64q.3.7.64,1.38l.33.63q.38.7.81,1.37l.33.51q.5.75,1.07,1.45l.25.31q.66.8,1.39,1.54l.08.08h0A23,23,0,0,0,31,56a23.13,23.13,0,0,0,16.29-6.73h0l.23-.24c.32-.33.63-.66.94-1l.2-.24c.31-.37.61-.75.9-1.14l.09-.14a22.85,22.85,0,0,0,4-17.69l0-.26c-.1-.5-.21-1-.34-1.5,0-.14-.08-.28-.12-.42-.1-.33-.2-.67-.31-1s-.15-.43-.23-.64-.21-.53-.32-.8l3-3A27.06,27.06,0,0,1,58,33ZM31,42.59,17.41,29,20,26.41,30.29,36.71a1,1,0,0,0,1.41,0L58,10.41,60.59,13Z"/></svg>